<svg width="248px" height="248px" viewBox="0 0 24.00 24.00" fill="none" xmlns="http://www.w3.org/2000/svg" stroke="#2e98d0" transform="rotate(0)matrix(1, 0, 0, 1, 0, 0)"><g id="SVGRepo_bgCarrier" stroke-width="0" transform="translate(0,0), scale(1)"><path transform="translate(0, 0), scale(1.5)" fill="#7ed0ec" d="M9.166.33a2.25 2.25 0 00-2.332 0l-5.25 3.182A2.25 2.25 0 00.5 5.436v5.128a2.25 2.25 0 001.084 1.924l5.25 3.182a2.25 2.25 0 002.332 0l5.25-3.182a2.25 2.25 0 001.084-1.924V5.436a2.25 2.25 0 00-1.084-1.924L9.166.33z" strokewidth="0"></path></g><g id="SVGRepo_tracerCarrier" stroke-linecap="round" stroke-linejoin="round" stroke="#CCCCCC" stroke-width="0.43200000000000005"></g><g id="SVGRepo_iconCarrier"> <path d="M7 8L3 12L7 16" stroke="#053e60" stroke-width="2.4" stroke-linecap="round" stroke-linejoin="round"></path> <path d="M17 8L21 12L17 16" stroke="#053e60" stroke-width="2.4" stroke-linecap="round" stroke-linejoin="round"></path> <path d="M14 4L9.8589 19.4548" stroke="#053e60" stroke-width="2.4" stroke-linecap="round" stroke-linejoin="round"></path> </g></svg>